<?xml version="1.0" standalone="no"?>
<!DOCTYPE svg PUBLIC "-//W3C//DTD SVG 20010904//EN"
 "http://www.w3.org/TR/2001/REC-SVG-20010904/DTD/svg10.dtd">
<svg version="1.0" xmlns="http://www.w3.org/2000/svg"
 width="900.000000pt" height="900.000000pt" viewBox="0 0 900.000000 900.000000"
 preserveAspectRatio="xMidYMid meet">
<metadata>
Created by potrace 1.14, written by Peter Selinger 2001-2017
</metadata>
<g transform="translate(0.000000,900.000000) scale(0.100000,-0.100000)"
fill="#000000" stroke="none">
<path d="M340 6270 l0 -120 1035 0 1035 0 -1 120 -1 120 -1034 0 -1034 0 0
-120z"/>
<path d="M2579 6383 c0 -5 -1 -59 -2 -120 l-2 -113 638 0 c352 0 637 4 635 9
-1 4 -27 58 -57 120 l-55 111 -578 0 c-318 0 -578 -3 -579 -7z"/>
<path d="M4521 6313 c-23 -43 -41 -82 -41 -88 0 -5 -9 -21 -20 -35 -11 -14
-20 -28 -20 -32 0 -5 279 -8 620 -8 l620 0 0 120 0 120 -559 0 -560 0 -40 -77z"/>
<path d="M5839 6378 c-4 -53 -3 -212 2 -219 3 -5 537 -8 1314 -7 l1309 3 -64
48 c-85 64 -206 122 -326 155 l-99 27 -1067 3 c-865 2 -1068 0 -1069 -10z"/>
<path d="M344 5921 c-2 -2 -4 -58 -4 -123 l0 -118 1035 0 1036 0 -3 123 -3
122 -1028 0 c-566 0 -1030 -2 -1033 -4z"/>
<path d="M2583 5916 c-5 -7 -7 -115 -4 -213 l1 -23 746 0 c410 0 744 3 742 8
-2 4 -19 41 -38 82 -19 41 -44 93 -55 115 l-20 40 -683 0 c-407 0 -686 -3
-689 -9z"/>
<path d="M4315 5905 c-17 -27 -115 -216 -115 -221 0 -2 333 -4 740 -4 l741 0
-3 123 -3 122 -674 0 c-664 0 -674 0 -686 -20z"/>
<path d="M5842 5916 c-3 -5 -5 -59 -5 -120 l-1 -111 1446 -3 1446 -2 -22 72
c-13 40 -33 96 -45 123 l-21 50 -1396 0 c-858 0 -1398 -3 -1402 -9z"/>
<path d="M906 5451 c-2 -3 -4 -50 -4 -104 0 -92 1 -97 22 -97 42 -1 802 -1
859 -1 l57 1 0 104 0 103 -465 1 c-256 0 -467 -3 -469 -7z"/>
<path d="M3203 5436 c8 -11 37 -58 66 -103 29 -46 58 -83 64 -84 7 0 367 -1
801 -1 648 0 791 3 801 14 6 7 31 45 55 83 24 39 49 80 57 91 l14 22 -936 0
-936 -1 14 -21z"/>
<path d="M6309 5431 c-1 -38 -1 -152 0 -178 l1 -22 389 0 390 1 -2 111 -2 112
-387 1 -388 2 -1 -27z"/>
<path d="M7771 5345 l-1 -113 474 -1 474 0 6 32 c8 36 19 129 20 167 l1 25
-487 1 -486 2 -1 -113z"/>
<path d="M923 5032 c-21 -3 -22 -7 -20 -110 l2 -107 465 0 465 0 3 108 c3 105
2 107 -20 108 -86 2 -877 3 -895 1z"/>
<path d="M3528 5032 l-68 -3 68 -102 c37 -56 70 -104 74 -107 4 -3 241 -6 527
-5 449 0 522 2 534 15 14 15 127 194 127 201 0 5 -1161 5 -1262 1z"/>
<path d="M6309 4989 c-1 -16 -1 -40 -1 -54 0 -14 0 -52 1 -85 l1 -59 1062 0
1062 0 76 77 c41 42 85 93 97 113 l21 37 -1159 0 -1159 0 -1 -29z"/>
<path d="M918 4622 c-14 -3 -16 -19 -16 -113 l1 -109 468 0 469 0 0 113 0 112
-453 0 c-249 0 -460 -1 -469 -3z"/>
<path d="M3677 4615 c-2 -5 -3 -55 -3 -110 l1 -100 453 -3 c248 -1 452 1 453
5 1 11 1 184 0 203 -1 14 -52 16 -451 16 -296 -1 -451 -4 -453 -11z"/>
<path d="M6309 4523 c-2 -65 1 -167 5 -170 1 -2 523 -2 1159 -1 l1157 3 -33
50 c-19 28 -60 76 -92 108 l-57 57 -1069 0 -1069 0 -1 -47z"/>
<path d="M903 4051 l2 -136 468 0 467 0 0 137 0 138 -469 -1 -470 -1 2 -137z"/>
<path d="M3676 4057 c1 -73 2 -134 3 -137 2 -11 901 -6 902 5 1 14 1 237 0
252 -1 9 -114 12 -454 12 l-453 0 2 -132z"/>
<path d="M6309 4133 c-1 -12 -1 -176 0 -198 1 -20 6 -21 384 -21 255 0 384 4
389 11 4 5 8 56 8 113 l0 102 -390 0 c-214 0 -390 -3 -391 -7z"/>
<path d="M7771 4027 l0 -112 477 0 c262 0 482 3 489 8 7 4 10 23 7 45 -7 67
-15 127 -21 150 l-5 22 -473 0 -473 0 -1 -113z"/>
<path d="M344 3681 c-2 -2 -4 -58 -4 -123 l0 -118 1034 0 1034 0 -1 123 -2
122 -1028 0 c-566 0 -1030 -2 -1033 -4z"/>
<path d="M3201 3680 c-4 -3 -7 -58 -7 -122 l0 -118 933 0 933 0 1 25 c0 14 1
54 1 90 0 36 -1 80 -1 98 l-1 32 -926 0 c-509 0 -929 -2 -933 -5z"/>
<path d="M5839 3673 c0 -7 -1 -58 -1 -113 0 -55 1 -104 1 -110 1 -7 475 -10
1400 -10 l1399 0 22 48 c28 58 70 192 61 193 -3 1 -653 2 -1443 3 -1150 1
-1438 -1 -1439 -11z"/>
<path d="M340 3090 l0 -120 1034 0 1033 0 1 119 0 120 -1034 0 -1034 1 0 -120z"/>
<path d="M3199 3206 c-1 0 -2 -54 -3 -118 l-2 -118 933 0 c926 0 933 0 934 20
0 11 1 49 1 85 0 36 -1 81 -1 100 l-1 36 -930 -2 c-511 0 -931 -2 -931 -3z"/>
<path d="M5839 3194 c0 -7 -2 -61 -2 -119 l-2 -105 1045 1 c1048 1 1058 1
1214 34 100 21 295 123 350 184 l19 21 -1312 -1 c-1138 0 -1311 -2 -1312 -15z"/>
</g>
</svg>
